HIERARCHY
ROOT Hips
{
	OFFSET 0.00000 0.00000 0.00000
	CHANNELS 6 Xposition Yposition Zposition Zrotation Yrotation Xrotation 
	JOINT LHipJoint
	{
		OFFSET 0 0 0
		CHANNELS 3 Zrotation Yrotation Xrotation
		JOINT LeftHip
		{
			OFFSET 1.77779 -1.88989 0.48267
			CHANNELS 3 Zrotation Yrotation Xrotation
			JOINT LeftKnee
			{
				OFFSET 2.53442 -6.96327 0.00000
				CHANNELS 3 Zrotation Yrotation Xrotation
				JOINT LeftAnkle
				{
					OFFSET 2.71068 -7.44755 0.00000
					CHANNELS 3 Zrotation Yrotation Xrotation
					JOINT LeftToe
					{
						OFFSET 0.17992 -0.49431 2.22524
						CHANNELS 3 Zrotation Yrotation Xrotation
						End Site
						{
							OFFSET 0.00000 -0.00000 1.14687
						}
					}
				}
			}
		}
	}
	JOINT RHipJoint
	{
		OFFSET 0 0 0
		CHANNELS 3 Zrotation Yrotation Xrotation
		JOINT RightHip
		{
			OFFSET -1.58469 -1.88989 0.48267
			CHANNELS 3 Zrotation Yrotation Xrotation
			JOINT RightKnee
			{
				OFFSET -2.60386 -7.15404 0.00000
				CHANNELS 3 Zrotation Yrotation Xrotation
				JOINT RightAnkle
				{
					OFFSET -2.73334 -7.50979 0.00000
					CHANNELS 3 Zrotation Yrotation Xrotation
					JOINT RightToe
					{
						OFFSET -0.25618 -0.70384 2.21822
						CHANNELS 3 Zrotation Yrotation Xrotation
						End Site
						{
							OFFSET -0.00000 -0.00000 1.16381
						}
					}
				}
			}
		}
	}
	JOINT lowerback
	{
		OFFSET 0 0 0
		CHANNELS 3 Zrotation Yrotation Xrotation
		JOINT Chest
		{
			OFFSET 0.03410 2.01612 -0.22230
			CHANNELS 3 Zrotation Yrotation Xrotation
			JOINT Chest2
			{
				OFFSET 0.03465 2.03012 0.00937
				CHANNELS 3 Zrotation Yrotation Xrotation
				JOINT lowerneck
				{
					OFFSET 0 0 0
					CHANNELS 3 Zrotation Yrotation Xrotation
					JOINT Neck
					{
						OFFSET -0.00219 1.70459 0.20857
						CHANNELS 3 Zrotation Yrotation Xrotation
						JOINT Head
						{
							OFFSET 0.02518 1.72339 -0.22179
							CHANNELS 3 Zrotation Yrotation Xrotation
							End Site
							{
								OFFSET 0.00282 1.74122 -0.09823
							}
						}
					}
				}
				JOINT LeftCollar
				{
					OFFSET 0 0 0
					CHANNELS 3 Zrotation Yrotation Xrotation
					JOINT LeftShoulder
					{
						OFFSET 3.36358 1.00547 -0.37661
CHANNELS 3 Zrotation Xrotation Yrotation
						JOINT LeftElbow
						{
OFFSET 0 -5.065070 0.000000
CHANNELS 3 Zrotation Xrotation Yrotation
							JOINT LeftWrist
							{
OFFSET 0 -3.601960 0.000000
CHANNELS 3 Zrotation Xrotation Yrotation
								JOINT lhand
								{
									OFFSET 0 0 0
CHANNELS 3 Zrotation Xrotation Yrotation
									JOINT LFingers
									{
OFFSET 0 -0.450350 0.000000
CHANNELS 3 Zrotation Xrotation Yrotation
										End Site
										{
OFFSET 0 -0.363080 0.000000
										}
									}
								}
								JOINT LThumb
								{
OFFSET 0 0.000000 0.000000
CHANNELS 3 Zrotation Xrotation Yrotation
									End Site
									{
OFFSET 0 -0.368620 0.368620
									}
								}
							}
						}
					}
				}
				JOINT RightCollar
				{
					OFFSET 0 0 0
					CHANNELS 3 Zrotation Yrotation Xrotation
					JOINT RightShoulder
					{
						OFFSET -3.50159 0.80383 -0.71526
CHANNELS 3 Zrotation Xrotation Yrotation
						JOINT RightElbow
						{
OFFSET 0 -5.363940 0.000000
CHANNELS 3 Zrotation Xrotation Yrotation
							JOINT RightWrist
							{
OFFSET 0 -3.580350 0.000000
CHANNELS 3 Zrotation Xrotation Yrotation
								JOINT rhand
								{
									OFFSET 0 0 0
CHANNELS 3 Zrotation Xrotation Yrotation
									JOINT RFingers
									{
OFFSET 0 -0.663750 0.000000
CHANNELS 3 Zrotation Xrotation Yrotation
										End Site
										{
OFFSET 0 -0.535130 0.000000
										}
									}
								}
								JOINT RThumb
								{
OFFSET 0 0.000000 0.000000
CHANNELS 3 Zrotation Xrotation Yrotation
									End Site
									{
OFFSET 0 -0.543300 0.543300
									}
								}
							}
						}
					}
				}
			}
		}
	}
}
MOTION
Frames: 10
Frame Time: 0.008333333333333333
0.465913 17.925407 13.385170 -6.742138 -1.862966 0.004053 0.000000 0.000000 0.000000 -9.424783 -11.281737 -26.563661 2.006743 8.866568 25.387937 0.133179 2.384541 -8.203320 0.274546 -3.370349 -9.311549 0.000000 0.000000 0.000000 35.118007 4.934217 5.262279 -1.490909 -7.713117 21.846331 -1.148817 -3.252625 -21.660315 -0.019840 -0.907650 2.494822 7.525053 1.446624 9.992104 2.027428 2.928410 -0.260377 -2.519850 1.252100 -5.625801 -1.509941 -3.043252 -17.404001 -0.410120 -3.711604 20.612209 -0.376893 -1.893641 9.396333 0.000000 0.000000 0.000000 3.874304 6.601250 -21.474924 11.589547 -19.186169 1.965366 27.494929 4.880627 -17.292556 0.000000 0.000000 0.000000 -7.125000 0.000000 0.000000 -0.429528 49.318522 0.045620 0.000000 0.000000 0.000000 -4.064987 -10.901401 20.292037 -18.616873 -28.939521 -4.844169 -20.032327 -12.415113 -22.898924 0.000000 0.000000 0.000000 7.125000 0.000000 0.000000 5.599512 5.868896 5.022300
0.479740 17.920824 13.503366 -6.796359 -1.972670 0.141091 0.000000 0.000000 0.000000 -9.154245 -11.842570 -26.251250 1.711420 8.235538 23.432690 0.131579 2.541393 -8.280362 0.280742 -3.408033 -9.416887 0.000000 0.000000 0.000000 35.061809 4.735846 5.711604 -1.443029 -7.594083 21.487855 -1.167615 -2.945647 -21.667606 -0.023243 -0.983571 2.703593 7.626259 1.486425 9.851920 2.045335 2.976731 -0.210733 -2.557444 1.279665 -5.485471 -1.502205 -2.975828 -17.386088 -0.383572 -3.625302 20.440186 -0.355429 -1.850130 9.332934 0.000000 0.000000 0.000000 3.797056 6.681968 -21.434946 11.676777 -19.318138 1.994101 27.590497 5.012034 -17.404964 0.000000 0.000000 0.000000 -7.125000 0.000000 0.000000 -0.354219 49.457998 0.039016 0.000000 0.000000 0.000000 -4.188480 -11.170584 20.486931 -18.792407 -29.159872 -4.929326 -20.177979 -12.552049 -22.741377 0.000000 0.000000 0.000000 7.125000 0.000000 0.000000 5.495070 6.009099 4.912730
0.493566 17.916306 13.622944 -6.662065 -2.071851 0.271552 0.000000 0.000000 0.000000 -9.068275 -12.451684 -25.891217 1.445433 7.585630 21.469549 0.131031 2.697521 -8.387003 0.289503 -3.460121 -9.562611 0.000000 0.000000 0.000000 34.808348 4.606344 6.160140 -1.397648 -7.478339 21.140758 -1.175692 -2.603478 -21.572943 -0.034606 -1.192952 3.279989 7.532965 1.515241 9.785799 2.010358 2.998018 -0.244888 -2.543207 1.291575 -5.484718 -1.479275 -2.979114 -17.178213 -0.485353 -3.615103 20.242510 -0.386915 -1.856016 9.223624 0.000000 0.000000 0.000000 3.639627 6.699080 -20.995377 11.614695 -19.224296 1.973636 27.713429 4.984724 -17.214406 0.000000 0.000000 0.000000 -7.125000 0.000000 0.000000 -0.200966 49.268331 0.021494 0.000000 0.000000 0.000000 -4.285333 -11.188106 20.805486 -18.987346 -29.402586 -5.024810 -20.451632 -12.755749 -22.697229 0.000000 0.000000 0.000000 7.125000 0.000000 0.000000 5.320050 6.011631 4.754616
0.505493 17.905616 13.742007 -6.673928 -2.178667 0.387373 0.000000 0.000000 0.000000 -8.783724 -13.062143 -25.503606 1.200773 6.934574 19.528724 0.126685 2.871929 -8.419458 0.274287 -3.365737 -9.299066 0.000000 0.000000 0.000000 34.725575 4.431182 6.602226 -1.356699 -7.372525 20.824087 -1.177043 -2.359789 -21.469378 -0.034969 -1.203434 3.308792 7.570279 1.555571 9.775428 2.003790 3.057605 -0.292931 -2.579259 1.317135 -5.521869 -1.488038 -2.992330 -17.054297 -0.514927 -3.625993 20.168635 -0.394028 -1.865622 9.174928 0.000000 0.000000 0.000000 3.531814 6.729169 -20.618361 11.551427 -19.128516 1.952853 27.684348 4.821425 -16.776838 0.000000 0.000000 0.000000 -7.125000 0.000000 0.000000 -0.159327 48.781048 0.014535 0.000000 0.000000 0.000000 -4.330671 -11.191346 20.966567 -19.109364 -29.554260 -5.084725 -20.848374 -12.943068 -22.937361 0.000000 0.000000 0.000000 7.125000 0.000000 0.000000 5.094623 5.697716 4.580755
0.515850 17.890269 13.860687 -6.802848 -2.291587 0.491988 0.000000 0.000000 0.000000 -8.339159 -13.677598 -25.092763 0.976407 6.284756 17.614486 0.118589 3.080243 -8.392832 0.240063 -3.150786 -8.699019 0.000000 0.000000 0.000000 34.782157 4.230448 7.035470 -1.320563 -7.277959 20.541615 -1.173179 -2.198724 -21.361686 -0.027591 -1.071935 2.946730 7.715487 1.606710 9.800028 2.017566 3.149028 -0.348443 -2.659599 1.354518 -5.579501 -1.528509 -3.013870 -16.995715 -0.475428 -3.655194 20.187695 -0.376827 -1.878103 9.172651 0.000000 0.000000 0.000000 3.470058 6.779005 -20.320792 11.502685 -19.054648 1.936880 27.577833 4.635100 -16.314487 0.000000 0.000000 0.000000 -7.125000 0.000000 0.000000 -0.190902 48.253566 0.015264 0.000000 0.000000 0.000000 -4.338213 -11.188149 21.002997 -19.173610 -29.633835 -5.116431 -21.299989 -13.125386 -23.377515 0.000000 0.000000 0.000000 7.125000 0.000000 0.000000 4.853909 5.166092 4.413230
0.524816 17.873773 13.979307 -7.009970 -2.408495 0.592674 0.000000 0.000000 0.000000 -7.781039 -14.323331 -24.658533 0.787698 5.650591 15.777905 0.103120 3.443630 -8.329039 0.194477 -2.832916 -7.814268 0.000000 0.000000 0.000000 34.950058 4.088215 7.437531 -1.296333 -7.213550 20.349551 -1.167019 -2.118641 -21.271883 -0.022389 -0.964610 2.651448 7.955395 1.675978 9.781479 2.028381 3.269700 -0.383830 -2.797110 1.405922 -5.582923 -1.633644 -3.043508 -16.967651 -0.312523 -3.706393 20.226094 -0.310433 -1.891792 9.186751 0.000000 0.000000 0.000000 3.482516 6.906317 -20.278012 11.570037 -19.156703 1.958920 27.724173 5.023744 -17.025039 0.000000 0.000000 0.000000 -7.125000 0.000000 0.000000 -0.160169 49.061314 0.015812 0.000000 0.000000 0.000000 -4.344305 -11.215049 20.966241 -19.203590 -29.670865 -5.131216 -21.487808 -13.360160 -23.761163 0.000000 0.000000 0.000000 7.125000 0.000000 0.000000 4.775399 4.734668 4.380169
0.534771 17.859927 14.099318 -7.088026 -2.498683 0.637449 0.000000 0.000000 0.000000 -7.399677 -14.981773 -24.185547 0.631816 5.068744 14.108247 0.085360 3.940125 -8.363594 0.169145 -2.648109 -7.300458 0.000000 0.000000 0.000000 34.972188 3.920293 7.846237 -1.276773 -7.161087 20.193459 -1.178103 -2.035459 -21.330637 -0.017367 -0.846416 2.326347 8.061971 1.749828 9.866937 2.010769 3.392394 -0.446971 -2.896269 1.457102 -5.679171 -1.637421 -3.059538 -16.951443 -0.256680 -3.741514 20.317350 -0.295998 -1.902024 9.216883 0.000000 0.000000 0.000000 3.486396 7.089270 -20.231999 11.616373 -19.226873 1.974134 27.818510 5.446249 -17.576752 0.000000 0.000000 0.000000 -7.125000 0.000000 0.000000 -0.158177 49.685387 0.018335 0.000000 0.000000 0.000000 -4.341864 -11.207370 20.841509 -19.205323 -29.673002 -5.132079 -21.657081 -13.445076 -23.820124 0.000000 0.000000 0.000000 7.125000 0.000000 0.000000 4.676367 4.644321 4.297082
0.545003 17.847923 14.221101 -7.075525 -2.584641 0.642942 0.000000 0.000000 0.000000 -7.171200 -15.551998 -23.691418 0.499819 4.525285 12.560396 0.067629 4.462731 -8.444145 0.169427 -2.642245 -7.284669 0.000000 0.000000 0.000000 34.892293 3.733632 8.266134 -1.261745 -7.120481 20.072836 -1.185071 -1.959587 -21.356647 -0.012599 -0.720964 1.981329 8.062705 1.826292 9.985517 1.978804 3.508895 -0.509660 -2.952594 1.507175 -5.798738 -1.580979 -3.060904 -16.938378 -0.266436 -3.757457 20.431491 -0.311709 -1.905942 9.252761 0.000000 0.000000 0.000000 3.478728 7.279860 -20.149353 11.608005 -19.214100 1.971480 27.895659 5.665522 -17.497386 0.000000 0.000000 0.000000 -7.125000 0.000000 0.000000 -0.079031 49.608203 0.016125 0.000000 0.000000 0.000000 -4.345395 -11.171108 20.711973 -19.228296 -29.701229 -5.143554 -21.756251 -13.423556 -23.596870 0.000000 0.000000 0.000000 7.125000 0.000000 0.000000 4.593062 4.860034 4.201047
0.554243 17.837793 14.347181 -6.968542 -2.710927 0.607281 0.000000 0.000000 0.000000 -7.191186 -15.730851 -23.193874 0.395369 4.027056 11.154075 0.054966 4.805242 -8.501778 0.231577 -3.086811 -8.521171 0.000000 0.000000 0.000000 34.706732 3.525210 8.717818 -1.255311 -7.102958 20.020748 -1.137774 -1.920572 -20.926386 -0.008492 -0.589066 1.618626 7.915133 1.903637 10.015839 1.949097 3.595481 -0.510482 -2.915154 1.553172 -5.813797 -1.495283 -3.031197 -16.912642 -0.315307 -3.729052 20.525743 -0.339430 -1.891294 9.277676 0.000000 0.000000 0.000000 3.441972 7.381641 -19.922587 11.419433 -18.928127 1.909877 28.014346 4.973244 -15.158264 0.000000 0.000000 0.000000 -7.125000 0.000000 0.000000 0.380525 47.035470 -0.009885 0.000000 0.000000 0.000000 -4.392008 -11.091709 20.752836 -19.399962 -29.912526 -5.228908 -21.606351 -13.287003 -22.911507 0.000000 0.000000 0.000000 7.125000 0.000000 0.000000 4.619003 5.600772 4.159773
0.563735 17.824598 14.473261 -6.949547 -2.847765 0.595790 0.000000 0.000000 0.000000 -7.347352 -15.310820 -22.908487 0.318053 3.614002 9.994283 0.069791 4.583340 -8.633580 0.277748 -3.384746 -9.352153 0.000000 0.000000 0.000000 34.608959 3.356485 9.140408 -1.255208 -7.102622 20.019664 -1.123743 -1.775529 -20.740343 -0.004184 -0.378224 1.039143 7.818966 1.957114 9.986514 1.954516 3.649605 -0.467736 -2.860929 1.586304 -5.751771 -1.357778 -2.962095 -16.891428 -0.376540 -3.656124 20.502459 -0.372980 -1.853531 9.261084 0.000000 0.000000 0.000000 3.365116 7.419856 -19.476427 11.278950 -18.714414 1.864506 27.718720 3.787810 -12.127948 0.000000 0.000000 0.000000 -7.125000 0.000000 0.000000 0.432802 43.624963 0.009983 0.000000 0.000000 0.000000 -4.440932 -11.193261 20.812141 -19.494343 -30.028347 -5.275971 -21.366755 -13.211655 -22.431265 0.000000 0.000000 0.000000 7.125000 0.000000 0.000000 4.723788 6.141262 4.205281
